<mxfile host="Electron" modified="2023-12-12T13:08:54.814Z" agent="Mozilla/5.0 (X11; Linux x86_64) AppleWebKit/537.36 (KHTML, like Gecko) draw.io/22.1.2 Chrome/114.0.5735.289 Electron/25.9.4 Safari/537.36" etag="D0nyDpFfE0muQq0owFMo" version="22.1.2" type="device">
  <diagram name="Page-1" id="gXeBnIMkLvZMQp232SY4">
    <mxGraphModel dx="2439" dy="980" grid="1" gridSize="10" guides="1" tooltips="1" connect="1" arrows="1" fold="1" page="1" pageScale="1" pageWidth="850" pageHeight="1100" math="0" shadow="0">
      <root>
        <mxCell id="0" />
        <mxCell id="1" parent="0" />
        <mxCell id="pQ8P8pEieS0PJ1SU1b43-1" value="" style="rounded=1;whiteSpace=wrap;html=1;" vertex="1" parent="1">
          <mxGeometry x="140" y="80" width="370" height="870" as="geometry" />
        </mxCell>
        <mxCell id="pQ8P8pEieS0PJ1SU1b43-17" style="rounded=0;orthogonalLoop=1;jettySize=auto;html=1;endArrow=none;endFill=0;entryX=0;entryY=0.5;entryDx=0;entryDy=0;" edge="1" parent="1" source="pQ8P8pEieS0PJ1SU1b43-2" target="pQ8P8pEieS0PJ1SU1b43-9">
          <mxGeometry relative="1" as="geometry" />
        </mxCell>
        <mxCell id="pQ8P8pEieS0PJ1SU1b43-2" value="Super Manager" style="shape=umlActor;verticalLabelPosition=bottom;verticalAlign=top;html=1;outlineConnect=0;" vertex="1" parent="1">
          <mxGeometry x="20" y="450" width="30" height="60" as="geometry" />
        </mxCell>
        <mxCell id="pQ8P8pEieS0PJ1SU1b43-8" style="rounded=0;orthogonalLoop=1;jettySize=auto;html=1;entryX=0;entryY=0.5;entryDx=0;entryDy=0;endArrow=none;endFill=0;" edge="1" parent="1" source="pQ8P8pEieS0PJ1SU1b43-4" target="pQ8P8pEieS0PJ1SU1b43-10">
          <mxGeometry relative="1" as="geometry">
            <mxPoint x="260" y="250" as="targetPoint" />
          </mxGeometry>
        </mxCell>
        <mxCell id="pQ8P8pEieS0PJ1SU1b43-57" style="rounded=0;orthogonalLoop=1;jettySize=auto;html=1;entryX=0;entryY=0.5;entryDx=0;entryDy=0;endArrow=none;endFill=0;" edge="1" parent="1" source="pQ8P8pEieS0PJ1SU1b43-4" target="pQ8P8pEieS0PJ1SU1b43-56">
          <mxGeometry relative="1" as="geometry" />
        </mxCell>
        <mxCell id="pQ8P8pEieS0PJ1SU1b43-58" style="rounded=0;orthogonalLoop=1;jettySize=auto;html=1;endArrow=none;endFill=0;" edge="1" parent="1" source="pQ8P8pEieS0PJ1SU1b43-4" target="pQ8P8pEieS0PJ1SU1b43-53">
          <mxGeometry relative="1" as="geometry" />
        </mxCell>
        <mxCell id="pQ8P8pEieS0PJ1SU1b43-4" value="super admin" style="shape=umlActor;verticalLabelPosition=bottom;verticalAlign=top;html=1;outlineConnect=0;" vertex="1" parent="1">
          <mxGeometry x="40" y="230" width="30" height="60" as="geometry" />
        </mxCell>
        <mxCell id="pQ8P8pEieS0PJ1SU1b43-9" value="Manage Employee" style="rounded=1;whiteSpace=wrap;html=1;" vertex="1" parent="1">
          <mxGeometry x="260" y="400" width="120" height="60" as="geometry" />
        </mxCell>
        <mxCell id="pQ8P8pEieS0PJ1SU1b43-10" value="Manage Super Manager" style="rounded=1;whiteSpace=wrap;html=1;" vertex="1" parent="1">
          <mxGeometry x="260" y="250" width="120" height="50" as="geometry" />
        </mxCell>
        <mxCell id="pQ8P8pEieS0PJ1SU1b43-11" value="Manage Customer" style="rounded=1;whiteSpace=wrap;html=1;" vertex="1" parent="1">
          <mxGeometry x="260" y="470" width="120" height="60" as="geometry" />
        </mxCell>
        <mxCell id="pQ8P8pEieS0PJ1SU1b43-12" value="Manage Inventory" style="rounded=1;whiteSpace=wrap;html=1;" vertex="1" parent="1">
          <mxGeometry x="260" y="535" width="120" height="60" as="geometry" />
        </mxCell>
        <mxCell id="pQ8P8pEieS0PJ1SU1b43-13" value="Manage Menu" style="rounded=1;whiteSpace=wrap;html=1;" vertex="1" parent="1">
          <mxGeometry x="260" y="610" width="120" height="60" as="geometry" />
        </mxCell>
        <mxCell id="pQ8P8pEieS0PJ1SU1b43-14" value="Manage Table" style="rounded=1;whiteSpace=wrap;html=1;" vertex="1" parent="1">
          <mxGeometry x="260" y="680" width="120" height="60" as="geometry" />
        </mxCell>
        <mxCell id="pQ8P8pEieS0PJ1SU1b43-15" value="Manage Order" style="rounded=1;whiteSpace=wrap;html=1;" vertex="1" parent="1">
          <mxGeometry x="260" y="750" width="120" height="60" as="geometry" />
        </mxCell>
        <mxCell id="pQ8P8pEieS0PJ1SU1b43-16" value="Manage Voucher" style="rounded=1;whiteSpace=wrap;html=1;" vertex="1" parent="1">
          <mxGeometry x="260" y="830" width="120" height="60" as="geometry" />
        </mxCell>
        <mxCell id="pQ8P8pEieS0PJ1SU1b43-18" style="rounded=0;orthogonalLoop=1;jettySize=auto;html=1;endArrow=none;endFill=0;entryX=0;entryY=0.5;entryDx=0;entryDy=0;" edge="1" parent="1" source="pQ8P8pEieS0PJ1SU1b43-2" target="pQ8P8pEieS0PJ1SU1b43-11">
          <mxGeometry relative="1" as="geometry">
            <mxPoint x="90" y="368" as="sourcePoint" />
            <mxPoint x="270" y="347" as="targetPoint" />
          </mxGeometry>
        </mxCell>
        <mxCell id="pQ8P8pEieS0PJ1SU1b43-19" style="rounded=0;orthogonalLoop=1;jettySize=auto;html=1;endArrow=none;endFill=0;entryX=0;entryY=0.5;entryDx=0;entryDy=0;" edge="1" parent="1" source="pQ8P8pEieS0PJ1SU1b43-2" target="pQ8P8pEieS0PJ1SU1b43-12">
          <mxGeometry relative="1" as="geometry">
            <mxPoint x="90" y="370" as="sourcePoint" />
            <mxPoint x="260" y="359" as="targetPoint" />
          </mxGeometry>
        </mxCell>
        <mxCell id="pQ8P8pEieS0PJ1SU1b43-20" style="rounded=0;orthogonalLoop=1;jettySize=auto;html=1;endArrow=none;endFill=0;entryX=0;entryY=0.5;entryDx=0;entryDy=0;" edge="1" parent="1" source="pQ8P8pEieS0PJ1SU1b43-2" target="pQ8P8pEieS0PJ1SU1b43-13">
          <mxGeometry relative="1" as="geometry">
            <mxPoint x="80" y="380" as="sourcePoint" />
            <mxPoint x="200" y="536" as="targetPoint" />
          </mxGeometry>
        </mxCell>
        <mxCell id="pQ8P8pEieS0PJ1SU1b43-21" style="rounded=0;orthogonalLoop=1;jettySize=auto;html=1;endArrow=none;endFill=0;entryX=0;entryY=0.5;entryDx=0;entryDy=0;" edge="1" parent="1" source="pQ8P8pEieS0PJ1SU1b43-2" target="pQ8P8pEieS0PJ1SU1b43-14">
          <mxGeometry relative="1" as="geometry">
            <mxPoint x="80" y="671" as="sourcePoint" />
            <mxPoint x="260" y="650" as="targetPoint" />
          </mxGeometry>
        </mxCell>
        <mxCell id="pQ8P8pEieS0PJ1SU1b43-22" style="rounded=0;orthogonalLoop=1;jettySize=auto;html=1;endArrow=none;endFill=0;entryX=0;entryY=0.5;entryDx=0;entryDy=0;" edge="1" parent="1" target="pQ8P8pEieS0PJ1SU1b43-15">
          <mxGeometry relative="1" as="geometry">
            <mxPoint x="50" y="500" as="sourcePoint" />
            <mxPoint x="260" y="730" as="targetPoint" />
            <Array as="points" />
          </mxGeometry>
        </mxCell>
        <mxCell id="pQ8P8pEieS0PJ1SU1b43-23" style="rounded=0;orthogonalLoop=1;jettySize=auto;html=1;endArrow=none;endFill=0;entryX=0;entryY=0.75;entryDx=0;entryDy=0;" edge="1" parent="1" source="pQ8P8pEieS0PJ1SU1b43-2" target="pQ8P8pEieS0PJ1SU1b43-16">
          <mxGeometry relative="1" as="geometry">
            <mxPoint x="80" y="841" as="sourcePoint" />
            <mxPoint x="260" y="820" as="targetPoint" />
          </mxGeometry>
        </mxCell>
        <mxCell id="pQ8P8pEieS0PJ1SU1b43-50" value="" style="endArrow=none;html=1;rounded=0;" edge="1" parent="1">
          <mxGeometry width="50" height="50" relative="1" as="geometry">
            <mxPoint x="140" y="140" as="sourcePoint" />
            <mxPoint x="510" y="140" as="targetPoint" />
            <Array as="points">
              <mxPoint x="340" y="140" />
              <mxPoint x="450" y="140" />
            </Array>
          </mxGeometry>
        </mxCell>
        <mxCell id="pQ8P8pEieS0PJ1SU1b43-51" value="&lt;font style=&quot;font-size: 18px;&quot;&gt;Restaurant Management System&lt;/font&gt;" style="text;html=1;strokeColor=none;fillColor=none;align=center;verticalAlign=middle;whiteSpace=wrap;rounded=0;" vertex="1" parent="1">
          <mxGeometry x="187.5" y="100" width="285" height="30" as="geometry" />
        </mxCell>
        <mxCell id="pQ8P8pEieS0PJ1SU1b43-54" style="rounded=0;orthogonalLoop=1;jettySize=auto;html=1;exitX=0;exitY=0.5;exitDx=0;exitDy=0;endArrow=none;endFill=0;entryX=1;entryY=0.3333333333333333;entryDx=0;entryDy=0;entryPerimeter=0;" edge="1" parent="1" source="pQ8P8pEieS0PJ1SU1b43-53" target="pQ8P8pEieS0PJ1SU1b43-2">
          <mxGeometry relative="1" as="geometry">
            <mxPoint x="40" y="520" as="targetPoint" />
          </mxGeometry>
        </mxCell>
        <mxCell id="pQ8P8pEieS0PJ1SU1b43-53" value="Business report" style="rounded=1;whiteSpace=wrap;html=1;" vertex="1" parent="1">
          <mxGeometry x="260" y="330" width="120" height="60" as="geometry" />
        </mxCell>
        <mxCell id="pQ8P8pEieS0PJ1SU1b43-56" value="Add New Restaurant&amp;nbsp;" style="rounded=1;whiteSpace=wrap;html=1;" vertex="1" parent="1">
          <mxGeometry x="260" y="160" width="120" height="60" as="geometry" />
        </mxCell>
      </root>
    </mxGraphModel>
  </diagram>
</mxfile>
